<svg width="1173" height="226" viewBox="0 0 1173 226" fill="none" xmlns="http://www.w3.org/2000/svg">
<path d="M0.5 1.5H50C77.3381 1.5 99.5 23.6619 99.5 51V225.5H50C22.6619 225.5 0.5 203.338 0.5 176V1.5Z" fill="white" stroke="#033B5E"/>
<line y1="66.5" x2="59" y2="66.5" stroke="#033B5E"/>
<path d="M0 0.5H50C77.6142 0.5 100 22.8858 100 50.5V112L47 53L0 0.5Z" fill="#033B5E"/>
<path d="M0 178.265L100 110V226H47.7345C21.3715 226 0 204.629 0 178.265Z" fill="#033B5E"/>
<path d="M1 1L58 66H1V34V1Z" fill="#47B5FF"/>
<path d="M227 130.8H177.6V188H160.2V52H233V68.4H177.6V114.4H227V130.8ZM335.772 171.8V188H261.372V52H278.772V171.8H335.772ZM451.823 105V134.8C451.823 151.733 447.557 165.2 439.023 175.2C430.623 185.067 418.49 190 402.623 190C386.757 190 374.557 185.067 366.023 175.2C357.623 165.2 353.423 151.733 353.423 134.8V105C353.423 88.2 357.623 74.8667 366.023 65C374.557 55 386.757 50 402.623 50C418.49 50 430.623 55 439.023 65C447.557 74.8667 451.823 88.2 451.823 105ZM433.823 105C433.823 92.6 431.157 83.0667 425.823 76.4C420.623 69.6 412.89 66.2 402.623 66.2C392.49 66.2 384.757 69.6 379.423 76.4C374.09 83.0667 371.423 92.6 371.423 105V134.8C371.423 147.333 374.09 157 379.423 163.8C384.757 170.6 392.49 174 402.623 174C412.89 174 420.623 170.6 425.823 163.8C431.157 157 433.823 147.333 433.823 134.8V105ZM504.716 109.6L514.316 164.6L545.716 52H561.916L593.316 164L603.316 109.6L615.116 52H632.316L602.316 188H584.716L553.516 76.8L522.316 188H504.516L474.716 52H492.916L504.716 109.6ZM737.586 188V127.4H678.186V188H660.786V52H678.186V111H737.586V52H754.986V188H737.586ZM794.509 52H812.509V139.2C812.509 150.133 814.776 158.667 819.309 164.8C823.976 170.933 831.176 174 840.909 174C850.776 174 857.976 170.933 862.509 164.8C867.043 158.667 869.309 150.133 869.309 139.2V52H887.309V139.2C887.309 155.067 883.443 167.533 875.709 176.6C867.976 185.533 856.376 190 840.909 190C825.309 190 813.643 185.533 805.909 176.6C798.309 167.533 794.509 155.067 794.509 139.2V52ZM926.997 188V52H966.997C980.064 52 989.664 55.2 995.797 61.6C1002.06 67.8667 1005.2 76.3333 1005.2 87V91.4C1005.2 97.2667 1003.86 102.467 1001.2 107C998.53 111.533 994.664 115.133 989.597 117.8C996.664 120.067 1002 123.8 1005.6 129C1009.33 134.067 1011.2 140.2 1011.2 147.4V151.8C1011.2 162.733 1008 171.533 1001.6 178.2C995.33 184.733 985.464 188 971.997 188H926.997ZM966.997 68H944.397V111H966.997C973.664 111 978.664 109.333 981.997 106C985.464 102.533 987.197 97.8 987.197 91.8V87C987.197 81.1333 985.464 76.5333 981.997 73.2C978.664 69.7333 973.664 68 966.997 68ZM971.997 127H944.397V172.2H971.997C979.064 172.2 984.33 170.4 987.797 166.8C991.397 163.2 993.197 158.2 993.197 151.8V147C993.197 140.867 991.397 136 987.797 132.4C984.33 128.8 979.064 127 971.997 127Z" fill="#033B5E"/>
</svg>
